<svg width="86" height="42" viewBox="0 0 86 42" fill="none" xmlns="http://www.w3.org/2000/svg">
<path d="M0 41.124L42.534 0L85.068 41.124H0ZM71.232 40.505H83.241L77.241 34.716L71.232 40.505ZM57.352 40.505H69.361L63.361 34.716L57.352 40.505ZM43.47 40.505H55.481L49.474 34.716L43.47 40.505ZM29.564 40.505H41.624L35.594 34.716L29.564 40.505ZM15.614 40.505H27.624L21.624 34.716L15.614 40.505ZM1.814 40.505H13.924L7.924 34.718L1.814 40.505ZM36.198 34.129L42.483 40.307L48.822 34.182L42.487 28.042L36.198 34.129ZM64.348 33.742C64.2567 33.8209 64.1969 33.9301 64.1798 34.0496C64.1628 34.1691 64.1894 34.2907 64.255 34.392V34.52L64.346 34.569L68.989 39.136L70.354 40.291L76.678 34.181L70.487 28.21H70.124L64.348 33.742ZM22.314 34.131L28.651 40.254L34.986 34.131L28.651 27.99L22.314 34.131ZM50.073 34.131L56.507 40.252L62.842 34.131L56.507 27.992L50.073 34.131ZM8.434 34.131L14.767 40.252L15.212 39.832L20.645 34.586C20.7164 34.5317 20.7742 34.4617 20.8141 34.3814C20.854 34.3011 20.8748 34.2127 20.875 34.123C20.8734 34.0272 20.8493 33.9331 20.8047 33.8483C20.7601 33.7636 20.6961 33.6905 20.618 33.635C19.542 32.62 18.465 31.569 17.385 30.519L15.771 28.955L14.771 27.99L8.434 34.131ZM15.374 27.422L21.806 33.631L22.001 33.287L27.657 27.81C27.7403 27.7341 27.7956 27.6322 27.8137 27.5209C27.8319 27.4096 27.8119 27.2955 27.757 27.197V27.067L27.657 26.981L22.157 21.721C22.0658 21.6268 21.9626 21.5451 21.85 21.478L21.65 21.357L15.374 27.422ZM43.734 27.066C43.6772 27.1095 43.6297 27.1639 43.5943 27.2261C43.5589 27.2883 43.5364 27.3569 43.528 27.428C43.5269 27.5112 43.5432 27.5938 43.5757 27.6704C43.6082 27.747 43.6563 27.816 43.717 27.873L48.934 32.95C49.068 33.096 49.234 33.255 49.434 33.43L49.646 33.623L55.977 27.506L49.239 21.042V21.75L43.734 27.066ZM57.111 27.466L63.448 33.591L69.783 27.466L63.448 21.343L57.111 27.466ZM29.255 27.466L35.584 33.583L36.098 33.124L36.927 32.332C38.407 30.92 39.938 29.461 41.449 27.932C41.5229 27.8816 41.5837 27.8145 41.6267 27.7361C41.6696 27.6578 41.6934 27.5703 41.696 27.481C41.6982 27.3845 41.6776 27.2889 41.6357 27.202C41.5938 27.1151 41.5319 27.0393 41.455 26.981C39.732 25.335 38.082 23.756 36.455 22.159L35.587 21.348L29.255 27.466ZM22.315 20.709L28.652 26.83L34.987 20.709L28.652 14.566L22.315 20.709ZM36.197 20.709L42.486 26.817L48.821 20.694L42.532 14.569L36.197 20.709ZM50.077 20.709L56.414 26.815L62.749 20.69L56.412 14.584L50.077 20.709ZM49.283 8.103C49.2645 8.1324 49.2408 8.15815 49.213 8.17899C47.355 10.003 45.5 11.807 43.621 13.592C43.5379 13.6652 43.4822 13.7645 43.4631 13.8735C43.444 13.9826 43.4627 14.0949 43.516 14.192V14.322L43.616 14.415L49.047 19.675L49.527 20.089L55.851 13.995L49.485 7.78L49.283 8.103ZM29.254 13.985L35.576 20.093L35.976 19.768L41.543 14.392C41.6333 14.3122 41.6928 14.2032 41.7111 14.0841C41.7294 13.965 41.7053 13.8432 41.643 13.74V13.61L41.543 13.53L35.667 7.883L29.254 13.985ZM36.585 6.93997C36.4957 7.03141 36.4443 7.15319 36.4409 7.28094C36.4376 7.4087 36.4826 7.53302 36.567 7.629L42.486 13.334L48.823 7.20898L42.702 1.32498H42.338L36.585 6.93997Z" fill="#9D8665"/>
</svg>
