<svg width="11" height="12" viewBox="0 0 11 12" fill="none" xmlns="http://www.w3.org/2000/svg">
<path fill-rule="evenodd" clip-rule="evenodd" d="M0.375282 0.219168C0.806544 -0.125842 1.43584 -0.0559202 1.78085 0.375342L6.2806 6.00004L1.78084 11.6247C1.43583 12.056 0.806543 12.1259 0.375281 11.7809C-0.0559813 11.4359 -0.125903 10.8066 0.219107 10.3753L3.71935 6.00004L0.219108 1.62473C-0.125902 1.19347 -0.0559803 0.564177 0.375282 0.219168ZM4.87528 0.219168C5.30654 -0.125841 5.93584 -0.0559197 6.28085 0.375342L10.7806 6.00004L6.28084 11.6247C5.93583 12.056 5.30654 12.1259 4.87528 11.7809C4.44402 11.4359 4.3741 10.8066 4.71911 10.3753L8.21935 6.00004L4.71911 1.62473C4.3741 1.19347 4.44402 0.564178 4.87528 0.219168Z" fill="#999999"/>
</svg>
