<svg width="12" height="12" viewBox="0 0 12 12" fill="none" xmlns="http://www.w3.org/2000/svg">
<path fill-rule="evenodd" clip-rule="evenodd" d="M6.62468 0.219168C7.05594 0.564178 7.12586 1.19347 6.78085 1.62473L3.28061 6.00004L6.78085 10.3753C7.12586 10.8066 7.05594 11.4359 6.62468 11.7809C6.19342 12.1259 5.56413 12.056 5.21912 11.6247L0.71936 6.00004L5.21912 0.375342C5.56413 -0.0559202 6.19342 -0.125842 6.62468 0.219168ZM11.1247 0.219168C11.5559 0.564178 11.6259 1.19347 11.2809 1.62473L7.78061 6.00004L11.2809 10.3753C11.6259 10.8066 11.5559 11.4359 11.1247 11.7809C10.6934 12.1259 10.0641 12.056 9.71912 11.6247L5.21936 6.00004L9.71912 0.375342C10.0641 -0.0559202 10.6934 -0.125842 11.1247 0.219168Z" fill="#999999"/>
</svg>
